<?xml version="1.0" standalone="no"?>
<!DOCTYPE svg PUBLIC "-//W3C//DTD SVG 1.1//EN" "http://www.w3.org/Graphics/SVG/1.1/DTD/svg11.dtd" >
<svg xmlns="http://www.w3.org/2000/svg">
<metadata>
<json>
<![CDATA[
{
	"fontFamily": "casualplay",
	"majorVersion": 1,
	"minorVersion": 0,
	"version": "Version 1.0",
	"fontId": "casualplay",
	"psName": "casualplay",
	"subFamily": "Regular",
	"fullName": "casualplay",
	"description": "Font generated by IcoMoon."
}
]]>
</json>
</metadata>
<defs>
<font id="casualplay" horiz-adv-x="1024">
<font-face units-per-em="1024" ascent="960" descent="-64" />
<missing-glyph horiz-adv-x="1024" />
<glyph unicode="&#x20;" horiz-adv-x="512" d="" />
<glyph unicode="&#xe900;" glyph-name="burger" data-tags="icn-burger" d="M73.143 740.571h877.714c43.886 0 73.143 29.257 73.143 73.143s-29.257 73.143-73.143 73.143h-877.714c-43.886 0-73.143-29.257-73.143-73.143s29.257-73.143 73.143-73.143zM950.857 155.429h-877.714c-43.886 0-73.143-29.257-73.143-73.143s29.257-73.143 73.143-73.143h877.714c43.886 0 73.143 29.257 73.143 73.143s-29.257 73.143-73.143 73.143zM950.857 521.143h-877.714c-43.886 0-73.143-29.257-73.143-73.143s29.257-73.143 73.143-73.143h877.714c43.886 0 73.143 29.257 73.143 73.143s-29.257 73.143-73.143 73.143z" />
<glyph unicode="&#xe901;" glyph-name="close" data-tags="icn-close" d="M607.086 448l387.657 387.657c21.943 21.943 21.943 65.829 0 87.771s-65.829 21.943-87.771 0l-387.657-387.657-402.286 402.286c-21.943 21.943-65.829 21.943-87.771 0s-29.257-58.514 0-87.771l402.286-402.286-402.286-402.286c-21.943-21.943-21.943-65.829 0-87.771 7.314-14.629 29.257-21.943 43.886-21.943s29.257 7.314 43.886 14.629l402.286 402.286 387.657-387.657c21.943-21.943 65.829-21.943 87.771 0s21.943 65.829 0 87.771l-387.657 394.971z" />
<glyph unicode="&#xe902;" glyph-name="arrow-next" data-tags="icn-next" d="M1016.686 469.943c0 0 0 0 0 0l-226.743 226.743c-14.629 14.629-36.571 14.629-51.2 0s-14.629-36.571 0-51.2l160.914-160.914h-899.657v-73.143h906.971l-160.914-160.914c-14.629-14.629-14.629-36.571 0-51.2s36.571-14.629 51.2 0l226.743 226.743c0 7.314 0 36.571-7.314 43.886z" />
<glyph unicode="&#xe903;" glyph-name="arrow-prev" data-tags="icn-prev" d="M7.314 426.057c0 0 0 0 0 0l226.743-226.743c14.629-14.629 36.571-14.629 51.2 0s14.629 36.571 0 51.2l-168.229 160.914h906.971v73.143h-906.971l160.914 160.914c14.629 14.629 14.629 36.571 0 51.2s-36.571 14.629-51.2 0l-219.429-226.743c-7.314-7.314-7.314-36.571 0-43.886z" />
<glyph unicode="&#xe904;" glyph-name="email" data-tags="icn-xxss-email" d="M548.571 389.486l438.857 373.029c-14.629 7.314-29.257 14.629-36.571 14.629h-877.714c-14.629 0-29.257-7.314-36.571-14.629l438.857-373.029c21.943-21.943 51.2-21.943 73.143 0zM1016.686 725.943l-431.543-373.029c-43.886-36.571-102.4-36.571-146.286 0l-438.857 373.029c0-14.629 0-21.943 0-29.257v-497.371c0-43.886 36.571-73.143 73.143-73.143h877.714c43.886 0 73.143 36.571 73.143 73.143v497.371c0 7.314 0 14.629-7.314 29.257z" />
<glyph unicode="&#xe905;" glyph-name="facebook" data-tags="icn-xxss-facebook" d="M575.194 588.574v126.388c0 46.428 10.317 77.38 74.801 77.38 59.325 0 113.491 0 113.491 0l5.159 162.499c0 0-54.166 7.738-126.388 7.738-177.975-2.579-255.355-108.332-255.355-224.403v-147.023h-131.547v-172.816h131.547v-479.758h188.292v477.179h185.713l7.738 172.816h-193.451z" />
<glyph unicode="&#xe906;" glyph-name="twitter" data-tags="icn-xxss-twitter" d="M619.52 519.68l343.040 391.68h-156.16l-258.56-296.96-222.72 296.96h-325.12l386.56-506.88-366.080-419.84h156.16l284.16 325.12 248.32-322.56h314.88l-404.48 532.48zM184.32 821.76h94.72l560.64-742.4h-87.040l-568.32 742.4z" />
<glyph unicode="&#xe907;" glyph-name="whatsaap" data-tags="icn-xxss-whatsaap" d="M744.96 345.6c-12.8 5.12-74.24 35.84-87.040 40.96s-20.48 5.12-28.16-5.12c-7.68-12.8-33.28-40.96-40.96-48.64s-15.36-10.24-28.16-2.56c-12.8 5.12-53.76 20.48-102.4 64-38.4 33.28-64 74.24-71.68 87.040s0 20.48 5.12 25.6c5.12 5.12 12.8 15.36 17.92 23.040 7.68 7.68 7.68 12.8 12.8 20.48s2.56 15.36 0 23.040c-2.56 5.12-28.16 69.12-38.4 94.72s-20.48 20.48-28.16 20.48h-23.040c-7.68 0-23.040-2.56-33.28-15.36-10.24-15.36-43.52-46.080-43.52-107.52s46.080-122.88 51.2-130.56c5.12-7.68 89.6-135.68 217.6-192 30.72-12.8 53.76-20.48 71.68-25.6 30.72-10.24 58.88-7.68 79.36-5.12 25.6 2.56 74.24 30.72 84.48 61.44s10.24 53.76 7.68 61.44c-2.56 2.56-10.24 5.12-23.040 10.24zM872.96 811.52c-94.72 94.72-222.72 148.48-358.4 148.48-279.040 0-506.88-227.84-506.88-506.88 0-89.6 23.040-176.64 66.56-253.44l-71.68-263.68 268.8 71.68c74.24-40.96 158.72-61.44 243.2-61.44 279.040 0 506.88 227.84 506.88 506.88 0 135.68-53.76 261.12-148.48 358.4zM514.56 30.72c-89.6 0-158.72 25.6-230.4 69.12l-158.72-40.96 43.52 156.16c-46.080 74.24-74.24 145.92-74.24 240.64 0 232.96 189.44 422.4 422.4 422.4s422.4-189.44 422.4-422.4c-2.56-235.52-192-424.96-424.96-424.96z" />
<glyph unicode="&#xe908;" glyph-name="plus" data-tags="plus" d="M980.114 484.571h-409.6v431.543c0 21.943-21.943 43.886-51.2 43.886-21.943 0-43.886-21.943-43.886-43.886v-431.543h-431.543c-21.943 0-43.886-21.943-43.886-43.886 0-29.257 21.943-43.886 43.886-43.886h431.543v-409.6c0-29.257 21.943-43.886 43.886-43.886 29.257 0 43.886 21.943 43.886 43.886v402.286h409.6c29.257 0 43.886 21.943 43.886 43.886 7.314 29.257-14.629 51.2-36.571 51.2z" />
<glyph unicode="&#xe909;" glyph-name="cart-icon" data-tags="cart-icon" d="M942.080 547.84c-5.12 5.12-12.8 10.24-20.48 10.24h-138.24v56.32c0 148.48-122.88 271.36-271.36 271.36s-271.36-122.88-271.36-271.36v-56.32h-138.24c-7.68 0-15.36-2.56-20.48-10.24-5.12-5.12-5.12-12.8-5.12-20.48l94.72-519.68c2.56-12.8 12.8-20.48 25.6-20.48h629.76c12.8 0 23.040 7.68 25.6 20.48l94.72 519.68c0 7.68 0 15.36-5.12 20.48zM291.84 614.4c0 120.32 99.84 220.16 220.16 220.16s220.16-99.84 220.16-220.16v-56.32h-440.32v56.32zM806.4 38.4h-588.8l-84.48 468.48h757.76l-84.48-468.48z" />
<glyph unicode="&#xe90a;" glyph-name="fast-shipping-icn" data-tags="fast-shipping-icn" d="M698.88 627.2c-10.24 0-17.92-7.68-17.92-17.92v-166.4l-168.96 74.24c0 0 0 0 0 0-10.24 5.12-20.48 0-23.040-10.24-5.12-10.24 0-20.48 10.24-23.040l194.56-84.48c2.56 0 5.12-2.56 7.68-2.56s7.68 0 10.24 2.56c5.12 2.56 7.68 10.24 7.68 15.36v194.56c-2.56 10.24-10.24 17.92-20.48 17.92zM691.2 785.92c-186.88 0-337.92-151.040-337.92-337.92s151.040-337.92 337.92-337.92c186.88 0 337.92 151.040 337.92 337.92s-151.040 337.92-337.92 337.92zM983.040 448c0-161.28-130.56-291.84-291.84-291.84s-291.84 130.56-291.84 291.84h-5.12c0 0 0 0 0 0 2.56 0 5.12 0 5.12 0 0 161.28 130.56 291.84 291.84 291.84s291.84-130.56 291.84-291.84h5.12c0 0 0 0 0 0s0 0 0 0h-5.12zM273.92 422.4c0 10.24-7.68 17.92-17.92 17.92h-230.4c-10.24 0-17.92-7.68-17.92-17.92s7.68-17.92 17.92-17.92h230.4c10.24 0 17.92 7.68 17.92 17.92zM330.24 299.52h-250.88c-10.24 0-20.48-7.68-20.48-17.92s10.24-17.92 20.48-17.92h250.88c10.24 0 20.48 7.68 20.48 17.92s-10.24 17.92-20.48 17.92zM330.24 581.12h-250.88c-10.24 0-20.48-7.68-20.48-17.92s10.24-17.92 20.48-17.92h250.88c10.24 0 20.48 7.68 20.48 17.92s-10.24 17.92-20.48 17.92z" />
<glyph unicode="&#xe90b;" glyph-name="heart-icon" data-tags="heart-icon" d="M673.28 806.4v0c-64 0-120.32-25.6-161.28-69.12v0 0c-40.96 43.52-97.28 69.12-161.28 69.12-122.88 0-222.72-102.4-222.72-227.84 0-286.72 384-488.96 384-488.96s384 202.24 384 488.96c0 125.44-99.84 227.84-222.72 227.84zM512 130.56c-69.12 40.96-350.72 217.6-350.72 448 0 107.52 84.48 192 189.44 192 51.2 0 99.84-20.48 135.68-58.88l23.040-25.6 23.040 25.6c35.84 38.4 84.48 58.88 135.68 58.88v0c104.96 0 189.44-87.040 189.44-192 5.12-230.4-276.48-407.040-345.6-448z" />
<glyph unicode="&#xe90c;" glyph-name="link-external-icon" data-tags="link-external-icon" d="M811.52 148.48h-599.040v599.040h256v84.48h-340.48v-768h768v340.48h-84.48zM640 832l84.48-84.48-340.48-343.040 84.48-84.48 343.040 340.48 84.48-84.48v256z" />
<glyph unicode="&#xe90d;" glyph-name="play-icon" data-tags="play-icon" d="M874.398 524.091l-621.622 420.433c-61.904 41.27-141.864-2.579-141.864-74.801v-840.866c0-72.222 82.539-116.071 141.864-74.801l621.622 420.433c51.587 33.531 51.587 113.491 0 149.602z" />
<glyph unicode="&#xe90e;" glyph-name="profile-icon" data-tags="profile-icon" d="M499.2 448c133.12 0 243.2 110.080 243.2 243.2s-110.080 243.2-243.2 243.2-243.2-110.080-243.2-243.2 110.080-243.2 243.2-243.2zM499.2 883.2c104.96 0 192-87.040 192-192s-87.040-192-192-192-192 87.040-192 192 87.040 192 192 192zM665.6 396.8h-307.2c-156.16 0-281.6-125.44-281.6-281.6v-128c0-15.36 10.24-25.6 25.6-25.6h819.2c15.36 0 25.6 10.24 25.6 25.6v128c0 156.16-125.44 281.6-281.6 281.6zM896 12.8h-768v102.4c0 128 102.4 230.4 230.4 230.4h307.2c128 0 230.4-102.4 230.4-230.4v-102.4z" />
<glyph unicode="&#xe90f;" glyph-name="tick-icon" data-tags="tick-icon" d="M788.48 616.96c-10.24 10.24-28.16 7.68-35.84-2.56l-330.24-386.56-168.96 166.4c-10.24 10.24-25.6 10.24-35.84 0s-10.24-25.6 0-35.84l189.44-186.88c5.12-5.12 10.24-7.68 17.92-7.68 0 0 0 0 0 0 7.68 0 12.8 2.56 17.92 7.68l348.16 407.040c10.24 12.8 7.68 28.16-2.56 38.4z" />
<glyph unicode="&#xe910;" glyph-name="truck-icn" data-tags="truck-icn" d="M106.701 761.6c-48.154 0-87.475-38.323-87.475-85.811v-453.555c-0.077-12.39-0.154-24.627 1.587-35.456 1.792-11.059 5.555-21.35 13.798-29.338 8.243-8.243 19.226-12.032 31.718-12.032h0.666l0.256-0.896c0.358-1.459 0.64-3.379 0.794-5.632 0.358-4.454 0.256-9.344 0.154-12.8v-0.154c-0.006-1.030-0.034-2.032-0.083-3.028l0.006 0.007c-0.043-0.876-0.071-1.923-0.077-2.975v-0.020c0-14.515 4.736-26.88 14.234-36.173 8.832-8.678 20.147-13.056 32.026-15.36 11.494-2.202 23.987-2.509 36.070-2.534 7.936-48.691 54.938-95.283 111.795-95.283 56.832 0 104.038 41.395 111.872 95.283h308.992c7.706-53.914 55.091-95.283 111.898-95.283 56.832 0 104.038 41.395 111.872 95.283h10.547c48.128 0 87.45 38.323 87.45 85.811v79.411c0 20.224-4.89 44.186-12.646 66.688-7.706 22.4-18.432 43.93-30.515 59.341l-91.136 141.747c-26.496 33.792-72.602 56.294-115.123 56.294h-90.88v120.653c0 47.488-39.322 85.811-87.475 85.811h-470.323zM64.461 675.789c0 22.528 18.893 41.242 42.24 41.242h470.17c23.347 0 42.24-18.688 42.24-41.242v-565.376h-248.192c-13.005 47.104-57.011 81.792-109.056 81.792-52.096 0-96.102-34.714-109.107-81.971-1.096-0.018-2.39-0.028-3.686-0.028-6.749 0-13.432 0.28-20.040 0.829l0.865-0.058c-4.021 0.329-7.72 0.982-11.292 1.943l0.438-0.1c-1.847 0.452-3.471 1.184-4.918 2.159l0.054-0.034-0.128 0.128c-0.128 0.128-0.154 0.179-0.333 0.614-0.396 1.084-0.625 2.335-0.625 3.639 0 0.17 0.004 0.338 0.012 0.506l-0.001-0.024 0.154 4.966v0.691c0.105 1.93 0.166 4.189 0.166 6.462 0 6.355-0.47 12.6-1.376 18.702l0.084-0.69c-1.613 9.318-5.171 19.2-13.056 27.187-5.888 5.965-16.384 12.698-32.922 12.698-0.107 0.344-0.231 0.835-0.336 1.332l-0.023 0.127c-0.509 2.493-0.883 5.454-1.043 8.473l-0.007 0.154c-0.461 6.477-0.435 14.080-0.435 20.941v1.485l0.154 453.453zM929.638 335.258l-0.27 0.372c5.729-7.554 10.756-15.67 15.374-25.127h-157.107c-26.752 0-48.64 21.427-48.64 47.642v158.822h16.205c30.003 0 65.51-17.485 83.507-40.192l90.957-141.517zM187.776 81.459c0 40.038 33.229 72.755 74.24 72.755 40.858 0 74.24-32.563 74.24-72.755-0.154-40.166-33.382-72.73-74.24-72.73s-74.24 32.538-74.24 72.73zM720.691 81.459c0 40.038 33.229 72.755 74.24 72.755 40.858 0 74.24-32.563 74.24-72.755 0-40.166-33.229-72.73-74.24-72.73-40.858 0-74.266 32.538-74.266 72.73zM917.325 104.013h-18.304c-10.547 46.72-53.171 81.792-104.090 81.792s-93.389-35.098-104.090-81.766h-32.922v412.928h48.64v-158.822c0-43.827 36.326-79.411 81.075-79.411h169.754c5.171-16.845 8.602-33.843 8.602-47.667v-79.411c0-26.189-21.914-47.642-48.64-47.642z" />
<glyph unicode="&#xe911;" glyph-name="less" data-tags="less-icon" d="M793.6 473.6h-563.2c-15.36 0-25.6-10.24-25.6-25.6s10.24-25.6 25.6-25.6h563.2c15.36 0 25.6 10.24 25.6 25.6s-10.24 25.6-25.6 25.6z" />
<glyph unicode="&#xe912;" glyph-name="arrow" data-tags="arrow-icon" d="M559.718 178.458l443.647 446.227c25.793 25.793 25.793 67.063 0 95.436s-67.063 25.793-95.436 0l-397.219-399.798-397.219 397.219c-25.793 25.793-67.063 25.793-95.436 0-10.317-12.897-18.055-30.952-18.055-46.428 0-18.055 7.738-33.531 20.635-46.428l443.647-446.227c25.793-25.793 69.642-25.793 95.436 0z" />
<glyph unicode="&#xe913;" glyph-name="pinterest" data-tags="pinterest-icon" d="M512 903.68c-253.44 0-455.68-204.8-455.68-455.68 0-194.56 120.32-358.4 289.28-424.96-5.12 35.84-7.68 92.16 2.56 130.56 7.68 35.84 53.76 227.84 53.76 227.84s-12.8 28.16-12.8 69.12c0 64 35.84 110.080 81.92 110.080 38.4 0 58.88-30.72 58.88-64 0-38.4-25.6-97.28-38.4-153.6-10.24-46.080 23.040-81.92 69.12-81.92 81.92 0 143.36 84.48 143.36 209.92 0 110.080-79.36 186.88-189.44 186.88-130.56 0-207.36-97.28-207.36-197.12 0-38.4 15.36-81.92 33.28-104.96 2.56-5.12 5.12-7.68 2.56-12.8-2.56-15.36-10.24-46.080-12.8-51.2-2.56-7.68-7.68-10.24-15.36-5.12-56.32 25.6-92.16 110.080-92.16 176.64 0 143.36 104.96 276.48 302.080 276.48 158.72 0 281.6-112.64 281.6-263.68 0-156.16-99.84-284.16-235.52-284.16-46.080 0-89.6 23.040-104.96 51.2l-28.16-107.52c-10.24-40.96-38.4-89.6-56.32-120.32 43.52-12.8 87.040-20.48 135.68-20.48 253.44 0 458.24 204.8 458.24 458.24-5.12 248.32-209.92 450.56-463.36 450.56z" />
<glyph unicode="&#xe914;" glyph-name="instagram" data-tags="instagram-icon" d="M510.71 707.224c-144.443 0-263.093-116.071-263.093-257.935s116.071-257.935 263.093-257.935 263.093 113.491 263.093 257.935c0 141.864-116.071 257.935-263.093 257.935zM510.71 279.053c-92.856 0-170.237 74.801-170.237 167.657s77.38 167.657 170.237 167.657c92.856 0 170.237-74.801 170.237-167.657s-74.801-167.657-170.237-167.657zM784.121 776.866c-33.531 0-61.904-25.793-61.904-59.325s28.373-59.325 61.904-59.325c33.531 0 61.904 25.793 61.904 59.325s-28.373 59.325-61.904 59.325zM1018.841 655.637c-5.159 79.96-23.214 152.181-82.539 211.506s-131.547 77.38-214.086 82.539c-85.118 5.159-337.894 5.159-423.013 0-82.539-2.579-154.761-23.214-214.086-79.96s-77.38-131.547-82.539-211.506c-2.579-85.118-2.579-335.315 0-417.854 5.159-79.96 23.214-152.181 82.539-211.506s131.547-77.38 214.086-82.539c85.118-5.159 337.894-5.159 423.013 0 82.539 2.579 154.761 23.214 214.086 82.539s77.38 131.547 82.539 211.506c5.159 82.539 5.159 332.736 0 415.275zM910.509 150.086c-18.055-43.849-51.587-77.38-98.015-95.436-67.063-25.793-226.982-20.635-301.783-20.635s-234.72-5.159-301.783 20.635c-43.849 18.055-79.96 51.587-98.015 95.436-25.793 67.063-20.635 224.403-20.635 296.625s-5.159 232.141 20.635 296.625c18.055 43.849 51.587 77.38 98.015 95.436 67.063 25.793 226.982 20.635 301.783 20.635s234.72 5.159 301.783-20.635c43.849-18.055 79.96-51.587 98.015-95.436 25.793-67.063 20.635-224.403 20.635-296.625s5.159-229.562-20.635-296.625z" />
<glyph unicode="&#xe915;" glyph-name="share" data-tags="share-icon" d="M768 268.8c-43.52 0-87.040-20.48-115.2-53.76l-286.72 158.72c10.24 23.040 17.92 48.64 17.92 74.24s-5.12 51.2-17.92 71.68l286.72 158.72c28.16-33.28 71.68-53.76 115.2-53.76 84.48 0 153.6 69.12 153.6 153.6s-69.12 153.6-153.6 153.6c-84.48 0-153.6-69.12-153.6-153.6 0-20.48 2.56-38.4 10.24-56.32l-291.84-158.72c-28.16 25.6-64 40.96-102.4 40.96-84.48 0-153.6-69.12-153.6-153.6s69.12-153.6 153.6-153.6c38.4 0 74.24 15.36 102.4 40.96l291.84-161.28c-7.68-23.040-10.24-40.96-10.24-61.44 0-84.48 69.12-153.6 153.6-153.6s153.6 69.12 153.6 153.6-69.12 153.6-153.6 153.6zM665.6 780.8c0 56.32 46.080 102.4 102.4 102.4 0 0 0 0 0 0 56.32 0 102.4-46.080 102.4-102.4 0 0 0 0 0 0 0-56.32-46.080-102.4-102.4-102.4 0 0 0 0 0 0-56.32 0-102.4 46.080-102.4 102.4 0 0 0 0 0 0zM332.8 448c0-56.32-46.080-102.4-102.4-102.4 0 0 0 0 0 0-56.32 0-102.4 46.080-102.4 102.4 0 0 0 0 0 0 0 56.32 46.080 102.4 102.4 102.4 0 0 0 0 0 0 56.32 0 102.4-46.080 102.4-102.4 0 0 0 0 0 0zM870.4 115.2c0-56.32-46.080-102.4-102.4-102.4 0 0 0 0 0 0-56.32 0-102.4 46.080-102.4 102.4 0 0 0 0 0 0 0 56.32 46.080 102.4 102.4 102.4 0 0 0 0 0 0 56.32 0 102.4-43.52 102.4-102.4 0 0 0 0 0 0z" />
<glyph unicode="&#xe916;" glyph-name="linkedin" data-tags="pinterest-icon" d="M741.376 620.032c-102.4 0-172.032-94.208-172.032-94.208v81.92h-188.416v-569.344h192.512v319.488c0 16.384 0 32.768 8.192 45.056 12.288 32.768 45.056 69.632 98.304 69.632 69.632 0 94.208-53.248 94.208-126.976v-303.104h188.416v327.68c0 172.032-94.208 249.856-221.184 249.856zM86.016 607.744h188.416v-569.344h-188.416v569.344zM184.32 882.176c-65.536 0-106.496-40.96-106.496-98.304 0-53.248 40.96-98.304 106.496-98.304v0c65.536 0 106.496 45.056 106.496 98.304-4.096 57.344-40.96 98.304-106.496 98.304z" />
<glyph unicode="&#xe917;" glyph-name="filter-icon" data-tags="filter" d="M870.4 192h-286.72c-10.24 44.373-51.2 78.507-98.987 78.507s-88.747-34.133-98.987-78.507h-232.107c-13.653 0-27.307-10.24-27.307-27.307s13.653-23.893 27.307-23.893h235.52c10.24-44.373 51.2-78.507 98.987-78.507s88.747 34.133 98.987 78.507h286.72c13.653 0 27.307 10.24 27.307 27.307s-17.067 23.893-30.72 23.893zM870.4 471.893h-81.92c-10.24 44.373-51.2 78.507-95.573 78.507s-88.747-34.133-98.987-78.507h-440.32c-13.653 0-27.307-10.24-27.307-27.307s10.24-27.307 27.307-27.307h440.32c10.24-44.373 51.2-78.507 98.987-78.507s88.747 34.133 98.987 78.507h81.92c13.653 0 27.307 10.24 27.307 27.307s-17.067 27.307-30.72 27.307zM153.6 704h105.813c10.24-44.373 51.2-78.507 98.987-78.507s88.747 34.133 98.987 78.507h413.013c13.653 0 27.307 10.24 27.307 27.307s-13.653 23.893-27.307 23.893h-413.013c-10.24 44.373-51.2 78.507-98.987 78.507s-88.747-34.133-98.987-78.507h-105.813c-13.653 0-23.893-10.24-23.893-27.307s10.24-23.893 23.893-23.893z" />
<glyph unicode="&#xe918;" glyph-name="cart-idioma" data-tags="cart-idioma" d="M512 960c0 0 0 0 0 0-138.971 0-263.314-51.2-358.4-146.286-102.4-102.4-153.6-226.743-153.6-365.714 0-285.257 226.743-512 512-512s512 226.743 512 512c0 285.257-226.743 512-512 512zM51.2 469.943c7.314 102.4 43.886 197.486 109.714 277.943 36.571-14.629 73.143-29.257 109.714-43.886-21.943-73.143-36.571-153.6-36.571-234.057h-182.857zM285.257 426.057h204.8v-204.8c-58.514 0-109.714-7.314-168.229-21.943-21.943 73.143-36.571 146.286-36.571 226.743zM285.257 140.8c14.629-51.2 43.886-95.086 80.457-138.971-65.829 21.943-124.343 58.514-175.543 102.4 36.571 21.943 65.829 29.257 95.086 36.571zM270.629 184.686c-36.571-7.314-73.143-21.943-109.714-43.886-65.829 80.457-109.714 175.543-109.714 277.943h190.171c-7.314-73.143 7.314-153.6 29.257-234.057zM490.057 170.057v-182.857c-58.514 14.629-109.714 73.143-153.6 168.229 51.2 7.314 102.4 14.629 153.6 14.629zM490.057 674.743v-204.8h-204.8c0 73.143 14.629 153.6 36.571 226.743 51.2-14.629 109.714-21.943 168.229-21.943zM285.257 755.2c-29.257 7.314-58.514 14.629-87.771 29.257 51.2 51.2 109.714 87.771 175.543 102.4-36.571-36.571-65.829-80.457-87.771-131.657zM490.057 908.8v-182.857c-51.2 0-102.4 7.314-153.6 14.629 36.571 95.086 95.086 153.6 153.6 168.229zM738.743 469.943h-204.8v204.8c58.514 0 109.714 7.314 168.229 21.943 21.943-73.143 36.571-146.286 36.571-226.743zM738.743 755.2c-21.943 51.2-51.2 95.086-87.771 131.657 65.829-21.943 124.343-58.514 175.543-102.4-29.257-7.314-58.514-21.943-87.771-29.257zM533.943 725.943v182.857c58.514-14.629 109.714-73.143 153.6-168.229-51.2-7.314-102.4-14.629-153.6-14.629zM972.8 426.057c-7.314-102.4-43.886-197.486-109.714-277.943-36.571 14.629-73.143 29.257-109.714 43.886 21.943 73.143 36.571 153.6 36.571 234.057h182.857zM533.943 221.257v204.8h204.8c0-73.143-14.629-153.6-36.571-226.743-51.2 14.629-109.714 21.943-168.229 21.943zM738.743 140.8c29.257-7.314 65.829-21.943 95.086-36.571-51.2-43.886-109.714-80.457-175.543-102.4 29.257 43.886 58.514 87.771 80.457 138.971zM533.943-12.8v182.857c51.2 0 102.4-7.314 153.6-14.629-36.571-95.086-95.086-153.6-153.6-168.229zM972.8 469.943h-190.171c0 80.457-14.629 160.914-36.571 234.057 36.571 7.314 73.143 21.943 109.714 43.886 73.143-73.143 117.029-175.543 117.029-277.943z" />
<glyph unicode="&#xe919;" glyph-name="cart" data-tags="cart" d="M1011.103 242.942c-7.738 7.738-18.055 12.897-28.373 12.897h-678.368l33.531 69.642h567.456c18.055 0 36.111 12.897 38.69 33.531l77.38 438.489c2.579 10.317 0 23.214-7.738 33.531-2.579 5.159-7.738 7.738-12.897 10.317s-10.317 2.579-15.476 2.579l-722.217 2.579-7.738 30.952c-2.579 18.055-20.635 30.952-38.69 30.952h-175.395c-12.897 0-20.635-5.159-28.373-12.897s-12.897-15.476-12.897-28.373c0-10.317 5.159-20.635 12.897-28.373s15.476-10.317 28.373-10.317h144.443l25.793-128.967 67.063-319.839-85.118-139.285c-5.159-5.159-7.738-12.897-7.738-20.635s0-15.476 5.159-20.635c7.738-12.897 20.635-23.214 36.111-23.214h72.222c-15.476-20.635-23.214-43.849-23.214-69.642 0-64.484 51.587-116.071 116.071-116.071s116.071 51.587 116.071 116.071c0 25.793-7.738 49.008-23.214 69.642h183.134c-15.476-20.635-23.214-43.849-23.214-69.642 0-64.484 51.587-116.071 116.071-116.071s116.071 51.587 116.071 116.071c0 25.793-7.738 49.008-23.214 69.642h128.967c23.214 0 41.27 18.055 41.27 41.27 0 10.317-5.159 20.635-12.897 25.793zM278.569 769.128l657.733-2.579-64.484-361.108h-515.869l-77.38 363.688zM415.275 80.443c-7.738-7.738-15.476-10.317-25.793-10.317-20.635 0-36.111 15.476-36.111 36.111s15.476 36.111 36.111 36.111c20.635 0 36.111-15.476 36.111-36.111 0-10.317-2.579-20.635-10.317-25.793zM786.7 80.443c-7.738-7.738-15.476-10.317-25.793-10.317-20.635 0-36.111 15.476-36.111 36.111s15.476 36.111 36.111 36.111c20.635 0 36.111-15.476 36.111-36.111 0-10.317-5.159-20.635-10.317-25.793z" />
<glyph unicode="&#xe91a;" glyph-name="user" data-tags="user" d="M510.71 384.806c-245.038 0-428.171-95.436-428.171-224.403s185.713-224.403 430.751-224.403 430.751 95.436 430.751 224.403-188.292 224.403-433.33 224.403zM510.71 15.96c-201.189 0-350.791 77.38-350.791 144.443 0 69.642 149.602 144.443 350.791 144.443s350.791-77.38 350.791-144.443c0-69.642-149.602-144.443-350.791-144.443zM510.71 428.655c147.023 0 265.673 118.65 265.673 265.673s-118.65 265.673-265.673 265.673-263.093-118.65-263.093-265.673 118.65-265.673 263.093-265.673zM510.71 880.040c103.174 0 185.713-82.539 185.713-185.713s-82.539-185.713-185.713-185.713-185.713 82.539-185.713 185.713c0 103.174 85.118 185.713 185.713 185.713z" />
<glyph unicode="&#xe91b;" glyph-name="youtube" data-tags="youtube" d="M794.438 286.791c-18.055 0-25.793-12.897-25.793-38.69v-25.793h51.587v25.793c0 25.793-7.738 38.69-25.793 38.69zM657.733 573.098c18.055 0 38.69 10.317 59.325 36.111v-30.952h51.587v283.728h-51.587v-216.665c-10.317-15.476-23.214-25.793-33.531-25.793-7.738 0-10.317 5.159-12.897 12.897 0 0 0 7.738 0 20.635v208.927h-51.587v-224.403c0-20.635 2.579-33.531 5.159-43.849 5.159-12.897 15.476-20.635 33.531-20.635zM500.393 573.098c25.793 0 46.428 10.317 59.325 28.373 10.317 15.476 15.476 36.111 15.476 67.063v100.594c0 30.952-5.159 51.587-15.476 67.063-15.476 18.055-33.531 28.373-59.325 28.373s-46.428-10.317-59.325-28.373c-10.317-15.476-15.476-36.111-15.476-67.063v-100.594c0-30.952 5.159-51.587 15.476-67.063 12.897-18.055 33.531-28.373 59.325-28.373zM474.599 779.446c0 25.793 7.738 38.69 25.793 38.69s25.793-12.897 25.793-38.69v-121.229c0-25.793-7.738-41.27-25.793-41.27-15.476 0-25.793 12.897-25.793 41.27v121.229zM606.146 286.791c-7.738 0-18.055-5.159-25.793-12.897v-172.816c7.738-7.738 18.055-12.897 25.793-12.897 15.476 0 23.214 12.897 23.214 38.69v121.229c-2.579 25.793-10.317 38.69-23.214 38.69zM920.826 431.234c-10.317 46.428-46.428 77.38-90.277 82.539-105.753 10.317-211.506 10.317-317.259 10.317s-211.506 0-317.259-10.317c-43.849-5.159-79.96-38.69-92.856-82.539-15.476-64.484-15.476-134.126-15.476-201.189 0-64.484 0-136.705 15.476-201.189 10.317-46.428 46.428-77.38 90.277-82.539 105.753-12.897 211.506-12.897 317.259-12.897s211.506 0 317.259 12.897c43.849 5.159 79.96 38.69 90.277 82.539 15.476 64.484 15.476 134.126 15.476 201.189v0c2.579 67.063 0 136.705-12.897 201.189zM330.156 374.489h-61.904v-324.997h-56.746v324.997h-59.325v54.166h177.975v-54.166zM484.917 49.491h-51.587v30.952c-20.635-23.214-41.27-36.111-59.325-36.111-15.476 0-28.373 7.738-33.531 20.635-2.579 7.738-5.159 20.635-5.159 41.27v224.403h51.587v-208.927c0-12.897 0-18.055 0-20.635 0-7.738 5.159-12.897 12.897-12.897 10.317 0 20.635 7.738 33.531 23.214v216.665h51.587v-278.569zM678.368 132.030c0-25.793 0-43.849-5.159-56.746-5.159-20.635-20.635-30.952-41.27-30.952-18.055 0-36.111 10.317-54.166 30.952v-28.373h-51.587v379.164h51.587v-123.809c15.476 20.635 33.531 30.952 54.166 30.952s33.531-10.317 41.27-30.952c5.159-10.317 5.159-30.952 5.159-56.746v-113.491zM871.819 178.458v0h-103.174v-49.008c0-25.793 7.738-38.69 25.793-38.69 12.897 0 20.635 7.738 23.214 20.635 0 2.579 0 15.476 0 36.111h51.587v-7.738c0-15.476 0-28.373 0-33.531 0-10.317-5.159-20.635-12.897-30.952-12.897-20.635-36.111-30.952-61.904-30.952s-46.428 10.317-61.904 28.373c-10.317 12.897-15.476 36.111-15.476 67.063v98.015c0 30.952 5.159 51.587 15.476 67.063 15.476 20.635 36.111 28.373 61.904 28.373s46.428-10.317 59.325-28.373c10.317-15.476 15.476-36.111 15.476-67.063v-59.325zM296.625 733.018v-154.761h56.746v154.761l69.642 226.982h-59.325l-38.69-149.602-38.69 149.602h-61.904c12.897-36.111 25.793-72.222 36.111-105.753 20.635-54.166 30.952-95.436 36.111-121.229z" />
<glyph unicode="&#xe91c;" glyph-name="download" data-tags="download" d="M918.247 46.912h-812.494c-30.952 0-54.166-23.214-54.166-54.166s23.214-54.166 54.166-54.166h815.073c30.952 0 54.166 23.214 54.166 54.166 0 28.373-25.793 54.166-56.746 54.166zM472.020 191.355c10.317-10.317 25.793-15.476 38.69-15.476s28.373 5.159 38.69 15.476l309.521 309.521c20.635 20.635 20.635 56.746 0 77.38s-56.746 20.635-77.38 0l-214.086-216.665v544.242c0 30.952-25.793 54.166-56.746 54.166s-54.166-23.214-54.166-54.166v-544.242l-216.665 216.665c-20.635 20.635-56.746 20.635-77.38 0s-20.635-56.746 0-77.38l309.521-309.521z" />
<glyph unicode="&#xe91d;" glyph-name="search" data-tags="search" d="M1011.103 8.222l-193.451 193.451c69.642 82.539 105.753 185.713 105.753 294.045 0 123.809-49.008 239.879-136.705 327.577-85.118 87.698-201.189 136.705-324.997 136.705s-239.879-49.008-324.997-136.705-136.705-201.189-136.705-324.997 49.008-239.879 136.705-327.577 203.768-136.705 327.577-136.705c108.332 0 211.506 38.69 296.625 105.753l193.451-193.451c7.738-7.738 18.055-12.897 30.952-12.897 10.317 0 20.635 5.159 30.952 12.897 10.317 18.055 10.317 46.428-5.159 61.904zM729.955 230.045c-72.222-72.222-165.078-110.912-265.673-110.912s-196.030 41.27-268.252 110.912c-72.222 72.222-110.912 165.078-110.912 265.673s38.69 196.030 110.912 265.673 165.078 113.491 265.673 113.491 196.030-38.69 265.673-110.912c72.222-72.222 110.912-165.078 110.912-265.673s-38.69-196.030-108.332-268.252z" />
<glyph unicode="&#xe91e;" glyph-name="call" data-tags="call" d="M974.992 175.879l-165.078 175.395c-15.476 15.476-36.111 23.214-56.746 20.635-20.635 0-41.27-10.317-54.166-25.793l-64.484-67.063c-131.547 54.166-232.141 162.499-281.149 301.783l69.642 72.222c28.373 30.952 28.373 79.96 0 110.912l-165.078 172.816c0 0 0 0-2.579 2.579-15.476 12.897-33.531 20.635-56.746 20.635-20.635 0-38.69-10.317-54.166-25.793l-46.428-49.008c-72.222-85.118-90.277-208.927-46.428-319.839 59.325-152.181 136.705-273.411 224.403-368.846 87.698-92.856 203.768-172.816 345.632-237.3 38.69-18.055 77.38-25.793 116.071-25.793 74.801 0 144.443 30.952 198.61 87.698l41.27 43.849c25.793 33.531 25.793 79.96-2.579 110.912zM938.882 101.078l-41.27-43.849c-67.063-72.222-167.657-90.277-257.935-51.587-136.705 61.904-247.617 136.705-330.156 226.982-82.539 87.698-154.761 206.348-214.086 353.37-36.111 90.277-20.635 196.030 38.69 268.252l46.428 46.428c5.159 7.738 12.897 10.317 20.635 10.317 0 0 0 0 0 0 7.738 0 15.476-2.579 20.635-7.738l165.078-172.816c10.317-12.897 10.317-30.952 0-43.849l-79.96-85.118c-5.159-7.738-7.738-15.476-5.159-23.214 51.587-159.919 167.657-283.728 314.68-345.632l15.476-5.159c10.317-2.579 20.635 0 25.793 5.159l74.801 79.96c5.159 5.159 12.897 10.317 20.635 10.317s15.476-2.579 20.635-7.738l162.499-172.816c12.897-10.317 12.897-30.952 2.579-41.27z" />
<glyph unicode="&#xe91f;" glyph-name="info" data-tags="info" d="M933.723 328.060c69.642 82.539 100.594 193.451 85.118 299.204-23.214 170.237-154.761 301.783-322.418 327.577-188.292 28.373-368.846-85.118-425.592-268.252-141.864-43.849-247.617-165.078-268.252-314.68-15.476-108.332 15.476-216.665 85.118-299.204l-43.849-64.484c-15.476-20.635-7.738-49.008 12.897-64.484 7.738-5.159 15.476-7.738 25.793-7.738h288.887c170.237 0 317.259 105.753 374.005 255.355h193.451c18.055 0 33.531 10.317 41.27 25.793s7.738 33.531-2.579 46.428l-43.849 64.484zM706.741 299.688c-10.317-170.237-157.34-301.783-332.736-301.783h-257.935l38.69 61.904c7.738 12.897 7.738 28.373-2.579 38.69-69.642 69.642-100.594 170.237-87.698 265.673 18.055 141.864 128.967 252.776 270.831 273.411 98.015 15.476 196.030-15.476 268.252-82.539 69.642-61.904 108.332-157.34 103.174-255.355zM760.907 253.259v0 0c2.579 12.897 5.159 28.373 5.159 43.849 7.738 116.071-38.69 229.562-123.809 306.942-82.539 74.801-190.872 110.912-301.783 98.015 56.746 136.705 198.61 214.086 345.632 193.451 141.864-20.635 250.196-131.547 270.831-273.411 12.897-98.015-18.055-196.030-87.698-268.252-10.317-10.317-10.317-25.793-2.579-38.69l41.27-61.904h-147.023zM404.957 199.093c-12.897 12.897-33.531 10.317-43.849 0-2.579-2.579-5.159-5.159-5.159-7.738-2.579-2.579-2.579-7.738-2.579-12.897s0-7.738 2.579-12.897 10.317-12.897 18.055-18.055c7.738-2.579 15.476-2.579 23.214 0 2.579 2.579 7.738 5.159 10.317 7.738 5.159 5.159 10.317 12.897 7.738 23.214 0 5.159 0 7.738-2.579 12.897-2.579 2.579-2.579 5.159-7.738 7.738zM407.537 490.559c-46.428 10.317-95.436-12.897-118.65-56.746-7.738-15.476-10.317-30.952-10.317-46.428 0-18.055 12.897-30.952 30.952-30.952s30.952 12.897 30.952 30.952c0 0 0 0 0 0 0 23.214 20.635 43.849 43.849 43.849 2.579 0 7.738 0 10.317 0 15.476-2.579 28.373-15.476 33.531-33.531 5.159-20.635-5.159-41.27-23.214-49.008-30.952-15.476-51.587-46.428-51.587-79.96 0-18.055 12.897-30.952 30.952-30.952s30.952 12.897 30.952 30.952c0 10.317 7.738 20.635 18.055 25.793 43.849 23.214 67.063 72.222 54.166 118.65-10.317 38.69-41.27 69.642-79.96 77.38z" />
<glyph unicode="&#xe920;" glyph-name="question" data-tags="question" d="M510.71 960v0c-281.149 0-510.71-229.562-510.71-510.71s229.562-510.71 510.71-510.71c283.728 0 510.71 229.562 510.71 510.71s-226.982 510.71-510.71 510.71zM510.71-12.413c-252.776 0-459.123 206.348-459.123 461.703s206.348 459.123 459.123 459.123c252.776 0 461.703-206.348 461.703-461.703s-206.348-459.123-461.703-459.123zM513.29 242.942c0 0 0 0 0 0-30.952 0-54.166-23.214-51.587-51.587 0-28.373 23.214-49.008 49.008-49.008 28.373 0 51.587 20.635 51.587 49.008 2.579 28.373-20.635 51.587-49.008 51.587zM510.71 730.438v0c-69.642 0-128.967-56.746-128.967-128.967h51.587c0 41.27 33.531 77.38 77.38 77.38 41.27 0 77.38-33.531 77.38-77.38 0-36.111-15.476-49.008-36.111-69.642-30.952-28.373-67.063-64.484-67.063-159.919h51.587c0 74.801 25.793 98.015 51.587 123.809 23.214 23.214 51.587 49.008 51.587 105.753 0 69.642-56.746 128.967-128.967 128.967z" />
<glyph unicode="&#xe921;" glyph-name="speak" data-tags="speak" d="M982.73 805.239h-941.461c-23.214 0-41.27-18.055-41.27-41.27v-631.94c0-7.738 2.579-15.476 7.738-23.214 7.738-12.897 20.635-18.055 36.111-18.055 7.738 0 15.476 2.579 23.214 7.738l154.761 100.594h760.907c23.214 0 41.27 18.055 41.27 41.27v523.607c0 23.214-18.055 41.27-41.27 41.27zM974.992 245.521h-755.748c-7.738 0-15.476-2.579-23.214-7.738l-147.023-95.436v616.463h925.985v-513.29zM804.756 490.559c0-35.613-28.87-64.484-64.484-64.484s-64.484 28.87-64.484 64.484c0 35.613 28.87 64.484 64.484 64.484s64.484-28.87 64.484-64.484zM348.212 490.559c0-35.613-28.87-64.484-64.484-64.484s-64.484 28.87-64.484 64.484c0 35.613 28.87 64.484 64.484 64.484s64.484-28.87 64.484-64.484zM575.194 490.559c0-35.613-28.87-64.484-64.484-64.484s-64.484 28.87-64.484 64.484c0 35.613 28.87 64.484 64.484 64.484s64.484-28.87 64.484-64.484z" />
</font>
</defs>
</svg>
