<svg width="269" height="29" viewBox="0 0 269 29" fill="none" xmlns="http://www.w3.org/2000/svg">
<g clip-path="url(#clip0_3029_1435)">
<path d="M113.494 7.86523L108.954 18.8829L103.473 7.86523H100.317L95.2203 19.1323L90.5736 7.86523H84.582L93.9415 28.7908L95.808 28.7935L101.837 16.4301L107.895 28.8016H109.761L119.158 7.86523H113.494Z" fill="#17449C"/>
<path d="M138.631 19.6309L123.873 19.6201C124.239 20.9658 124.94 22.0033 125.97 22.7351C127.003 23.467 128.282 23.8315 129.807 23.8315C131.872 23.8315 133.823 23.1185 135.661 21.6896L138.033 25.641C135.544 27.7588 132.743 28.815 129.635 28.8123C126.328 28.8096 123.585 27.7427 121.408 25.6088C119.232 23.475 118.146 20.8345 118.146 17.6847C118.149 14.5643 119.206 11.9319 121.313 9.78729C123.421 7.64272 126.028 6.57043 129.139 6.57043C132.052 6.57312 134.427 7.51941 136.262 9.40931C138.099 11.2992 139.015 13.6475 139.012 16.4542C139.015 17.4836 138.885 18.5452 138.631 19.6309ZM125.743 12.409C124.837 13.1811 124.215 14.2265 123.873 15.5428L133.458 15.5481C133.431 14.2319 132.978 13.1864 132.102 12.4117C131.226 11.637 130.167 11.251 128.922 11.251C127.71 11.251 126.648 11.637 125.743 12.409Z" fill="#17449C"/>
<path d="M160.366 9.7471C162.272 11.8515 163.225 14.508 163.222 17.7142C163.22 20.9203 162.264 23.5742 160.355 25.6786C158.446 27.7802 156.005 28.8311 153.037 28.8311C150.069 28.8284 147.821 27.7695 146.296 25.6491L146.293 28.311L141.035 28.3083L141.056 -0.179565L146.781 -0.176885L146.773 9.11714C148.271 7.42829 150.365 6.58655 153.05 6.58655C156.021 6.58923 158.459 7.64275 160.366 9.7471ZM155.862 21.939C156.895 20.8667 157.411 19.4432 157.413 17.6686C157.413 15.9235 156.892 14.5134 155.846 13.4384C154.8 12.3635 153.514 11.8273 151.988 11.8247C150.519 11.8247 149.267 12.3313 148.234 13.3473C147.202 14.3633 146.685 15.8162 146.683 17.7035C146.683 19.6202 147.204 21.0758 148.25 22.0623C149.296 23.0515 150.54 23.5447 151.981 23.5474C153.535 23.5474 154.829 23.0139 155.862 21.939Z" fill="#17449C"/>
<path d="M197.172 9.81686C199.375 11.9507 200.477 14.5778 200.474 17.6981C200.471 20.8185 199.367 23.4509 197.162 25.5982C194.956 27.7454 192.282 28.815 189.145 28.8124C186.007 28.8097 183.357 27.7428 181.194 25.6089C179.033 23.4751 177.953 20.8346 177.953 17.6847C177.956 14.5644 179.044 11.9373 181.223 9.80613C183.402 7.67497 186.06 6.61073 189.198 6.61341C192.311 6.61341 194.967 7.68033 197.172 9.81686ZM185.295 13.543C184.276 14.6448 183.767 16.0388 183.765 17.7276C183.765 19.4165 184.273 20.797 185.29 21.872C186.306 22.947 187.606 23.4831 189.19 23.4858C190.744 23.4858 192.039 22.9443 193.071 21.8559C194.104 20.7676 194.62 19.395 194.623 17.7357C194.625 16.0763 194.109 14.6877 193.076 13.5699C192.044 12.452 190.752 11.8944 189.198 11.8917C187.614 11.8917 186.312 12.4413 185.295 13.543Z" fill="#17449C"/>
<path d="M202.672 28.0619L208.202 28.0645L208.212 13.1653L212.678 13.1678L212.68 8.40266L208.214 8.40009L208.217 8.14321C208.217 6.9898 208.519 6.17548 209.12 5.69511C209.721 5.21474 210.649 4.97584 211.905 4.97584C212.187 4.97584 212.486 4.99125 212.803 5.01951L212.805 0.251753C212.074 0.0847793 211.309 7.73747e-06 210.516 7.73747e-06C208.087 -0.0025611 206.173 0.63451 204.779 1.90865C203.385 3.18279 202.687 5.09657 202.687 7.64743L202.672 28.0619Z" fill="#17449C"/>
<path d="M214.646 28.0619L220.176 28.0645L220.186 13.1653L224.652 13.1678L224.655 8.40266L220.189 8.40009L220.192 8.14321C220.192 6.9898 220.493 6.17548 221.094 5.69511C221.695 5.21474 222.624 4.97584 223.88 4.97584C224.161 4.97584 224.46 4.99125 224.778 5.01951L224.78 0.251753C224.049 0.0847793 223.284 7.73747e-06 222.491 7.73747e-06C220.061 -0.0025611 218.148 0.63451 216.754 1.90865C215.36 3.18279 214.662 5.09657 214.662 7.64743L214.646 28.0619Z" fill="#17449C"/>
<path d="M171.059 11.8327L171.054 20.4968C171.054 21.7004 171.363 22.5502 171.986 23.0515C172.608 23.5528 173.569 23.8048 174.869 23.8048C175.377 23.8048 175.944 23.7619 176.566 23.6761L176.563 28.5282C175.573 28.8418 174.527 29 173.426 28.9973C170.911 28.9946 168.93 28.3298 167.49 26.9975C166.05 25.6652 165.329 23.6681 165.332 21.0061L165.337 11.8274L165.34 6.93241L165.343 -0.150024L171.067 -0.147344L171.064 6.93509L171.059 11.8327Z" fill="#17449C"/>
<path d="M172.557 7.91626L177.403 7.91894L177.4 12.8139L172.555 12.8112L172.557 7.91626Z" fill="#17449C"/>
<path d="M246.694 19.7032L231.936 19.6925C232.301 21.0382 233.003 22.0757 234.033 22.8075C235.065 23.5393 236.344 23.9039 237.869 23.9039C239.934 23.9039 241.886 23.1908 243.723 21.762L246.095 25.7134C243.607 27.8312 240.805 28.8874 237.697 28.8847C234.39 28.882 231.647 27.8151 229.471 25.6812C227.295 23.5474 226.209 20.9069 226.209 17.757C226.212 14.6367 227.265 12.0042 229.373 9.85699C231.48 7.71242 234.088 6.64014 237.199 6.64014C240.112 6.64282 242.487 7.58911 244.321 9.47901C246.159 11.3689 247.075 13.7172 247.072 16.5239C247.078 17.556 246.951 18.6149 246.694 19.7032ZM233.808 12.4814C232.902 13.2535 232.28 14.2989 231.938 15.6152L241.523 15.6205C241.496 14.3043 241.044 13.2588 240.167 12.4841C239.291 11.7094 238.232 11.3233 236.988 11.3233C235.772 11.3233 234.713 11.7094 233.808 12.4814Z" fill="#17449C"/>
<path d="M268.799 19.7167L254.041 19.7059C254.407 21.0517 255.108 22.0891 256.138 22.8209C257.171 23.5528 258.45 23.9173 259.975 23.9173C262.04 23.9173 263.991 23.2043 265.829 21.7754L268.201 25.7268C265.712 27.8446 262.911 28.9008 259.803 28.8981C256.496 28.8954 253.753 27.8285 251.576 25.6946C249.4 23.5608 248.314 20.9203 248.314 17.7705C248.317 14.6501 249.371 12.0177 251.478 9.87042C253.586 7.72585 256.194 6.65356 259.305 6.65356C262.217 6.65625 264.592 7.60254 266.427 9.49244C268.264 11.3823 269.181 13.7306 269.178 16.5373C269.183 17.5694 269.053 18.6283 268.799 19.7167ZM255.911 12.4948C255.005 13.2669 254.383 14.3124 254.041 15.6286L263.626 15.6339C263.599 14.3177 263.147 13.2722 262.27 12.4975C261.394 11.7228 260.335 11.3368 259.09 11.3368C257.878 11.3368 256.816 11.7228 255.911 12.4948Z" fill="#17449C"/>
<path d="M57.9857 27.3672C57.9857 28.2644 57.2592 28.9999 56.3731 28.9999H45.1302C44.244 28.9999 43.5176 28.2644 43.5176 27.3672V15.9838C43.5176 15.0866 44.244 14.3511 45.1302 14.3511H56.3731C57.2592 14.3511 57.9857 15.0866 57.9857 15.9838V27.3672Z" fill="#07BFDD"/>
<path d="M72.6361 13.0161C72.6361 13.9133 71.9096 14.6489 71.0235 14.6489H59.7806C58.8944 14.6489 58.168 13.9133 58.168 13.0161V1.63274C58.168 0.735541 58.8944 0 59.7806 0H71.0235C71.9096 0 72.6361 0.735541 72.6361 1.63274V13.0161Z" fill="#007FFF"/>
<path d="M29.099 27.3672C29.099 28.2644 28.3725 28.9999 27.4864 28.9999H16.2435C15.3573 28.9999 14.6309 28.2644 14.6309 27.3672V15.9838C14.6309 15.0866 15.3573 14.3511 16.2435 14.3511H27.4864C28.3725 14.3511 29.099 15.0866 29.099 15.9838V27.3672Z" fill="#1DA5F8"/>
<path d="M14.4681 13.0176C14.4681 13.9148 13.7417 14.6503 12.8555 14.6503H1.6126C0.726467 14.6503 0 13.9175 0 13.0176V1.6342C0 0.737006 0.726467 0.00146484 1.6126 0.00146484H12.8555C13.7417 0.00146484 14.4681 0.737006 14.4681 1.6342V13.0176Z" fill="#8CC936"/>
</g>
<defs>
<clipPath id="clip0_3029_1435">
<rect width="269" height="29" fill="white"/>
</clipPath>
</defs>
</svg>
